<svg version="1" xmlns="http://www.w3.org/2000/svg" width="3149.333" height="3149.333" viewBox="0 0 2362.000000 2362.000000"><path d="M2184.8 1143.2l-.3 682.3-496.8.3-496.7.2.2 41.8.3 41.7 537.8.3 537.7.2V461h-82l-.2 682.2zM1449.1 887.3c-31.1 155.7-56.6 283.8-56.9 284.5-.3 1 14.4 1.2 72.8 1l73.2-.3 15.5-77.5c8.5-42.6 34.1-170.5 56.7-284.3l41.3-206.7h-146.2l-56.4 283.3zM378 636.3c0 .1-24.1 120.6-53.5 267.7S271 1171.8 271 1172.2c0 .5 34.2.8 76 .8h76l.5-2.3c1-4.2 40.5-204.2 40.5-204.9 0-.5 46.4-.8 103-.8 56.7 0 103 .3 103 .7 0 .8-39.8 201.6-40.7 205.1l-.5 2.2 76.3-.2 76.3-.3 53.7-268.3L888.7 636H736.4l-14.1 71.2c-7.8 39.2-16.8 84.5-20 100.5l-5.8 29.3H593.8c-78 0-102.8-.3-102.8-1.2 0-.6 8.8-45.3 19.5-99.4 10.7-54 19.5-98.7 19.5-99.3 0-.8-21-1.1-76-1.1-41.8 0-76 .1-76 .3z"/><path d="M1791.8 665.2c-.3.7-5.2 25-10.9 54l-10.3 52.8h-30.2c-28 0-30.3.1-30.8 1.7-.9 3.2-21.6 105.4-21.6 106.9 0 1.2 4.7 1.4 30.6 1.4 29.1 0 30.5.1 30 1.8-.4 1-7.2 34.4-15.1 74.3-12.5 62.1-14.7 74.4-15.4 86.4-2.6 43.7 7.5 74.6 32.3 98.8 20.2 19.7 49.8 32.1 85.6 35.8 24.6 2.5 63.8-.4 87.4-6.6 18.2-4.8 42.6-15 42.6-17.9 0-2-17.8-98.8-18.3-99.2-.2-.2-3.7 1.1-7.9 3-25.5 11.9-53.3 11.2-65.5-1.6-1.8-1.8-4.2-5.6-5.5-8.3-2-4.4-2.3-6.5-2.2-16.5.1-10.6 1.1-16.6 13.7-78.5 7.5-36.9 13.9-68 14.2-69.2l.5-2.3 47.2-.2 47.2-.3 10.7-54c5.9-29.7 10.5-54.3 10.2-54.8-.2-.4-21.3-.7-46.9-.7-25.5 0-46.4-.4-46.4-.8 0-.9 19.8-101.3 20.7-105l.5-2.2h-73c-57.5 0-73.1.3-73.4 1.2zM1132 750.7c-41.9 2.4-84.7 15-119.4 35.3-62.3 36.4-101.7 93.1-113.7 163.5-2.6 15.3-3.7 49.5-2 64.6 6.8 59.5 37.8 106.8 89.6 136.5 23.5 13.5 51.1 22.3 85.5 27.1 15.8 2.2 62.1 2.5 78 .5 41-5.2 75.9-17.3 109-37.7 52.7-32.7 90.3-84.6 104-143.9 4.6-20.2 5.5-29.1 5.5-56.6 0-23.4-.3-27.9-2.3-38.4-16.7-87.2-87.6-142.9-191.7-150.6-13-.9-29.5-1.1-42.5-.3zm34.9 119.3c22.4 5.4 39.8 20.8 48.2 42.3 9.9 25.7 6.6 68.7-7.5 96.5-10.2 20.2-27.8 37.6-46.1 45.7-13 5.7-20.4 7-40 7-20.6-.1-25.6-1-39.5-7.7-16.9-8.1-29.6-24.5-35.2-45.3-3.1-11.8-3.1-39.3 0-55.3 3.9-19.3 10.4-34.6 20.9-48.7 15.3-20.6 36-32.9 61.6-36.5 9.4-1.3 28-.3 37.6 2zM1314.7 1265.4c-12.7 4.7-19.7 14.7-19.7 28 0 9.5 6.7 19.5 15.4 23.1 5 2.1 15.7 2.1 21.5.1 10.8-3.9 18.1-14 18.9-26 .7-10.7-3.1-17.8-12.5-23.3-5.6-3.2-17.4-4.2-23.6-1.9zM256.5 1287c-1.1 1.7-75.5 375.2-74.9 376.1.3.5 9.3.9 19.9.9 19.4 0 19.5 0 20-2.3.2-1.2 5.4-27.4 11.5-58.2 6.1-30.8 11.3-56.8 11.6-57.8.5-1.6 4.4-1.7 63.7-1.7l63.2.1 33.7 59.7 33.6 59.7 20.8.3c11.4.1 21.1-.1 21.5-.5.4-.5-14.8-28.3-33.8-61.8-19-33.6-34.7-61.7-35-62.6-.3-1.2 1.4-2 7.9-3.8 26.6-7.2 48.6-19.7 66.9-38 21-21 32.1-43.1 37.5-74.6 2.4-13.6 2.4-43.1.1-53.2-4.8-21.2-13.2-36.2-27.7-49.6-21.3-19.7-48.7-29.9-88.5-32.7-18.5-1.3-151.2-1.3-152 0zm162.5 36.4c36.6 7.2 57.6 24 65.1 52.3 2.8 10.3 3 32.4.4 46.3-8.8 47.5-39.4 74.5-95.5 84.7-8.2 1.4-18.5 1.7-73.6 2l-64 .4 8.1-40.3c4.5-22.2 13.1-64.5 19.1-94.1l10.9-53.9 60.5.5c51.2.4 61.8.7 69 2.1zM697.5 1379.1c-66.9 8.6-121 59.7-134.4 127.1-5.5 27.5-5.3 52.9.4 75.5 11.8 46.3 49.3 77.4 100.6 83.4 13.9 1.6 38.4.6 51.1-2.1 25.9-5.4 50-17.9 68.3-35.2 4.7-4.4 8.5-7.6 8.5-7 0 .6-1.8 9.8-4 20.6-2.2 10.7-4 20.2-4 21.1 0 1.4 2.3 1.5 18.2 1.3l18.2-.3 28.3-141c15.5-77.6 28.2-141.3 28.3-141.8 0-.4-8.7-.7-19.3-.7h-19.2l-4.8 24.2c-2.7 13.4-5.3 26.5-5.9 29.2l-1 4.8-3.9-7.2c-15.9-29.3-44.8-47.2-83.9-52-9.9-1.2-31.5-1.1-41.5.1zm45.6 34.5c28.6 4.9 50 20.2 61.4 43.8 5.1 10.6 7.5 21.9 8.2 37.6 1 24.5-3.7 48-13.7 68.5-17.6 36.3-45.3 58.1-84 66.2-11.7 2.4-38.2 2.4-49.8 0-24.3-5.2-42.2-16.3-53.8-33.6-8.9-13.1-13.4-30.8-13.4-52.1 0-30.6 7.3-56.2 22.6-79.2 18.1-27.3 45.6-45.5 77.6-51.3 10.5-1.9 33.5-1.8 44.9.1zM1063.8 1379.5c-57.6 7.9-105.4 44.4-126.9 97-14.4 35.3-17 80.3-6.4 112.2 4.3 13 7.9 20 15.2 29.8 17.6 23.7 43.7 38.9 77.5 45.1 11.7 2.2 38 2.9 50.8 1.5 31.3-3.6 56.7-13.9 79.5-32.2 7-5.7 19.6-19 19.5-20.7-.1-.4-6.2-5.3-13.6-10.9l-13.5-10.2-4.5 5c-9.8 11.1-18.8 17.8-32.6 24.4-32.1 15.4-78.8 15-107.3-1-28.4-15.8-41.2-44.8-38.4-86.9 3.6-55.2 34.9-98.6 82.7-114.6 24.2-8.1 57.2-8 79.6.1 15.8 5.8 30.3 16.9 38.5 29.6 1.9 2.9 3.8 5.3 4.2 5.3.9 0 29.8-16.7 31.3-18 .5-.5-1.2-3.9-3.7-7.7-14.9-22.3-36.9-37.1-66.6-44.8-16.9-4.4-45.6-5.7-65.3-3zM1544 1379.5c-30.5 4.2-55 15.6-76.2 35.5-4.9 4.5-8.8 7.8-8.8 7.3s1.8-9.9 4-20.8 4-20.2 4-20.7c0-.4-8.3-.8-18.3-.8h-18.4l-11.8 59.7c-6.5 32.9-19.1 96.6-28 141.6-8.9 44.9-15.9 81.9-15.7 82.2 1 1 37.1.5 37.7-.5.3-.6 7.8-37 16.6-80.9 9.1-45.6 17.2-84 19-89.3 13.7-41.9 40.6-67.8 80.3-77.1 12.6-3 44.2-3.2 55.6-.3 25.2 6.2 41 22 45.6 45.6 3.3 16.5 2.4 22.8-16.5 117-9.3 46.5-16.6 84.8-16.2 85.3.4.4 9 .6 19.2.5l18.4-.3 14.7-72.5c8-39.9 15.8-78.8 17.3-86.5 3.2-17.1 4.3-38.4 2.6-50.6-6-41.8-35.7-69.2-81.1-74.8-11.1-1.4-32.1-1.2-44 .4zM1878 1379c-20.2 2.8-36.6 7.8-53.5 16.1-43 21.2-72 59.1-82.7 108.2-2 9-2.2 13.1-2.2 34.2 0 22.8.1 24.5 2.6 33.7 8.4 30.9 27.4 53.8 56.2 67.8 40 19.4 97.2 18.1 137.5-3 11.4-6.1 22.5-14 32.6-23.2 6-5.6 7.5-6.6 7.1-4.7-.4 1.3-2 9.1-3.6 17.4-3.9 18.8-7.3 31.8-11.1 41.2-18.9 47.7-54.3 69.3-113.4 69.3-39.5-.1-73.8-10.6-97.8-30l-8.6-7-10.7 13.7c-5.9 7.5-10.7 14.2-10.8 14.9-.1 1.8 12.4 11.6 22.2 17.5 20.7 12.3 46.2 20.5 74.7 23.9 12.6 1.6 45.2 1.6 57 .1 39.8-5.2 67.9-18.2 90.8-42.1 17.8-18.5 30.1-41.3 39.1-72.7 2.5-8.8 55.6-270.1 55.6-273.8 0-.3-8.3-.5-18.4-.5h-18.4l-4.2 22.2c-2.3 12.3-5 26.1-5.9 30.8l-1.7 8.5-3.1-6.7c-8.9-19-23.2-33.2-43.5-43.1-19.3-9.5-33.8-12.7-60.3-13.2-10.4-.2-21.9 0-25.5.5zm55.4 36.4c39.5 10.3 60.6 37.8 60.6 79 0 54.8-32.4 101.4-81.9 117.6-15 4.9-26.9 6.3-47 5.7-14.3-.4-19.4-1-27.1-3-27.7-7.2-46.4-23-54.9-46.3-4.2-11.6-5.4-20.9-4.9-38.1.6-16 2.9-29.1 7.5-41.1 12.8-34.2 39.9-60.3 74.2-71.3 15.2-4.9 23.3-5.9 44.6-5.5 16.5.3 20.3.7 28.9 3zM1271 1452.2c-7.9 39.8-20.5 103.3-28 141.3-7.5 37.9-13.5 69.3-13.3 69.7.6 1.2 37.1 1 37.8-.2.4-.6 13-63.5 28-139.8 15.1-76.3 27.7-139.7 28-141l.5-2.2h-38.7l-14.3 72.2z"/></svg>